<svg width="92" height="21" viewBox="0 0 92 21" fill="none" xmlns="http://www.w3.org/2000/svg">
<path opacity="0.502" fill-rule="evenodd" clip-rule="evenodd" d="M87.3613 20.1008H4.63866C2.07657 20.1008 0 18.0243 0 15.4622V4.63866C0 2.07657 2.07657 0 4.63866 0H87.3613C89.9234 0 92 2.07657 92 4.63866V15.4622C92 18.0243 89.9234 20.1008 87.3613 20.1008ZM8.60316 6.87449H6.62632V12.4726H7.6677V10.4625H8.60316C9.74272 10.4625 10.556 9.73035 10.556 8.67274C10.556 7.61513 9.74272 6.87449 8.60316 6.87449ZM13.1761 8.30706C11.9476 8.30706 11.0771 9.18531 11.0771 10.4385C11.0771 11.6832 11.9476 12.57 13.1761 12.57C14.4046 12.57 15.2674 11.6832 15.2674 10.4385C15.2674 9.18531 14.4046 8.30706 13.1761 8.30706ZM20.8245 8.40447L20.0027 11.1707L19.1808 8.40447H18.2376L17.4158 11.1707L16.594 8.40447H15.5526L16.952 12.4726H17.8874L18.7092 9.70639L19.5396 12.4726H20.475L21.8658 8.40447H20.8245ZM24.1612 8.30706C22.9977 8.30706 22.1519 9.17758 22.1519 10.4061C22.1519 11.6747 23.0139 12.57 24.2424 12.57C24.6977 12.57 25.1616 12.4641 25.6255 12.253V11.3817C25.2026 11.626 24.7874 11.7644 24.4132 11.7644C23.7298 11.7644 23.242 11.3415 23.1763 10.723H25.9347C25.951 10.5846 25.951 10.4548 25.951 10.3403C25.951 9.14511 25.2266 8.30706 24.1612 8.30706ZM29.1648 8.34726C29.0511 8.31479 28.9375 8.30706 28.8231 8.30706C28.4736 8.30706 28.1157 8.48565 27.8227 8.81113V8.40447H26.7813V12.4726H27.8227V9.75509C28.0909 9.41338 28.4574 9.22629 28.7991 9.22629C28.9212 9.22629 29.0511 9.24252 29.1648 9.27499V8.34726ZM31.549 8.30706C30.3855 8.30706 29.5397 9.17758 29.5397 10.4061C29.5397 11.6747 30.4025 12.57 31.631 12.57C32.0864 12.57 32.5502 12.4641 33.0141 12.253V11.3817C32.5904 11.626 32.176 11.7644 31.8011 11.7644C31.1184 11.7644 30.6298 11.3415 30.5649 10.723H33.3226C33.3388 10.5846 33.3388 10.4548 33.3388 10.3403C33.3388 9.14511 32.6152 8.30706 31.549 8.30706ZM37.8143 6.62245H36.7644V8.68124C36.4475 8.43694 36.0895 8.30706 35.7316 8.30706C34.6492 8.30706 33.8931 9.18531 33.8931 10.4385C33.8931 11.691 34.6492 12.57 35.7316 12.57C36.0895 12.57 36.4475 12.4401 36.7644 12.1873V12.4726H37.8143V6.62245ZM43.0545 8.30706C42.705 8.30706 42.3471 8.43694 42.0216 8.68124V6.62245H40.9802V12.4726H42.0216V12.1873C42.3471 12.4401 42.705 12.57 43.0545 12.57C44.1445 12.57 44.8929 11.691 44.8929 10.4385C44.8929 9.18531 44.1445 8.30706 43.0545 8.30706ZM48.1724 8.40447L47.1883 11.0732L46.2118 8.40447H45.1457L46.6997 12.3257L45.9188 14.2538H46.9277L49.2386 8.40447H48.1724ZM56.5212 7.95375C57.1884 7.95375 58.0365 8.15785 58.7045 8.51889V6.45082C57.977 6.16091 57.2503 6.04958 56.5228 6.04958C54.7423 6.04958 53.5556 6.97963 53.5556 8.53358C53.5556 10.9635 56.8923 10.5692 56.8923 11.6167C56.8923 12.0226 56.5398 12.1541 56.0504 12.1541C55.3229 12.1541 54.3844 11.8533 53.6476 11.4528V13.5487C54.464 13.8997 55.2912 14.0466 56.0481 14.0466C57.8734 14.0466 59.1313 13.1452 59.1313 11.5649C59.1313 8.94719 55.7752 9.41724 55.7752 8.42921C55.7752 8.08672 56.0612 7.95375 56.5212 7.95375ZM63.5341 6.1957H61.8673L61.8657 4.28921L59.7227 4.74534L59.7126 11.7876C59.7126 13.0872 60.6906 14.0466 61.9933 14.0466C62.7108 14.0466 63.2411 13.9167 63.5333 13.7559V11.9693C63.2527 12.0814 61.8673 12.4842 61.8673 11.1908V8.0674H63.5341V6.1957ZM68.2462 6.19647C67.954 6.09133 66.9281 5.8996 66.4139 6.84434L66.2763 6.1957H64.3783V13.8897H66.5724V8.67351C67.0912 7.9924 67.9671 8.12383 68.2462 8.21429V6.19647ZM71.1253 3.27025L68.9219 3.73876V5.52696L71.1253 5.05845V3.27025ZM71.1253 6.1957H68.9219V13.8897H71.1253V6.1957ZM75.8613 6.04958C75.0009 6.04958 74.445 6.45469 74.142 6.73765L74.0275 6.1957H72.0948L72.0955 16.4425L74.2904 15.9755L74.295 13.4915C74.6105 13.7227 75.0797 14.0466 75.8482 14.0466C77.4184 14.0466 78.8548 12.7834 78.8548 9.99398C78.8548 7.43808 77.4029 6.04958 75.8613 6.04958ZM82.7606 6.04958C80.6724 6.04958 79.4014 7.82464 79.4014 10.0605C79.4014 12.7076 80.8997 14.0466 83.0381 14.0466C84.0872 14.0466 84.875 13.8085 85.4711 13.4776V11.7095C84.8727 12.011 84.1862 12.195 83.3149 12.195C82.4591 12.195 81.7053 11.892 81.6071 10.863H85.9048C85.9149 10.7447 85.9342 10.2847 85.9342 10.0721C85.9342 7.82386 84.8456 6.04958 82.7606 6.04958ZM82.7467 7.83933C83.2855 7.83933 83.8576 8.25449 83.8576 9.24252H81.5878C81.5878 8.25371 82.1977 7.83933 82.7467 7.83933ZM75.3364 12.1077C74.8215 12.1077 74.5146 11.9221 74.3012 11.691L74.2881 8.42921C74.5169 8.17795 74.8331 7.99395 75.3364 7.99395C76.1397 7.99395 76.6924 8.89385 76.6924 10.0419C76.6924 11.224 76.1482 12.1077 75.3364 12.1077ZM42.8349 11.6747C42.5504 11.6747 42.2651 11.5526 42.0216 11.309V9.568C42.2651 9.3237 42.5504 9.20155 42.8349 9.20155C43.4209 9.20155 43.8276 9.70639 43.8276 10.4385C43.8276 11.1707 43.4209 11.6747 42.8349 11.6747ZM35.9596 11.6747C35.3651 11.6747 34.9585 11.1707 34.9585 10.4385C34.9585 9.70639 35.3651 9.20155 35.9596 9.20155C36.2441 9.20155 36.5286 9.3237 36.7644 9.568V11.309C36.5286 11.5526 36.2441 11.6747 35.9596 11.6747ZM31.5088 9.11187C31.9719 9.11187 32.3059 9.49456 32.3384 10.0481H30.5649C30.6136 9.48682 31.004 9.11187 31.5088 9.11187ZM24.1202 9.11187C24.5841 9.11187 24.9181 9.49456 24.9506 10.0481H23.1763C23.2257 9.48682 23.6162 9.11187 24.1202 9.11187ZM13.1761 11.6995C12.5661 11.6995 12.1432 11.1869 12.1432 10.4385C12.1432 9.69015 12.5661 9.17758 13.1761 9.17758C13.7784 9.17758 14.2012 9.69015 14.2012 10.4385C14.2012 11.1869 13.7784 11.6995 13.1761 11.6995ZM8.45704 9.61671H7.6677V7.72104H8.45704C9.05929 7.72104 9.48218 8.10373 9.48218 8.67274C9.48218 9.23402 9.05929 9.61671 8.45704 9.61671Z" fill="#566473"/>
</svg>
